<svg width="72" height="72" viewBox="0 0 72 72" fill="none" xmlns="http://www.w3.org/2000/svg">
<path d="M0 24.9999C0 11.1928 11.1929 -6.10352e-05 25 -6.10352e-05H46.6221C60.4292 -6.10352e-05 71.6221 11.1928 71.6221 24.9999V46.622C71.6221 60.4291 60.4292 71.622 46.6221 71.622H25C11.1929 71.622 0 60.4292 0 46.622V24.9999Z" fill="#3676D4"/>
<path d="M50.1354 26.5001C50.1354 34.4112 46.1962 50.4935 35.811 58.73C25.7839 50.4935 21.4866 34.4112 21.4866 26.5001C21.4866 18.5889 27.8998 12.1757 35.811 12.1757C43.7222 12.1757 50.1354 18.5889 50.1354 26.5001Z" fill="white"/>
<circle cx="35.8109" cy="27.2163" r="7.16221" fill="#3676D4"/>
</svg>
