<svg width="72" height="72" viewBox="0 0 72 72" fill="none" xmlns="http://www.w3.org/2000/svg">
<rect width="71.6221" height="71.6221" rx="25" fill="#36D492"/>
<rect x="9.4458" y="16.6082" width="52.7301" height="41.9868" rx="5" stroke="white" stroke-width="6"/>
<rect x="18.5" y="24.5" width="4" height="3" rx="1.5" fill="white" stroke="white" stroke-width="3"/>
<rect x="18.75" y="8.75" width="3.5" height="6.5" rx="1.75" fill="white" stroke="white" stroke-width="3.5"/>
<rect x="48.75" y="8.75" width="3.5" height="6.5" rx="1.75" fill="white" stroke="white" stroke-width="3.5"/>
<rect x="33.5" y="24.5" width="4" height="3" rx="1.5" fill="white" stroke="white" stroke-width="3"/>
<rect x="48.5" y="24.5" width="4" height="3" rx="1.5" fill="white" stroke="white" stroke-width="3"/>
<rect x="18.5" y="36.5" width="4" height="3" rx="1.5" fill="white" stroke="white" stroke-width="3"/>
<rect x="33.5" y="36.5" width="4" height="3" rx="1.5" fill="white" stroke="white" stroke-width="3"/>
<rect x="48.5" y="36.5" width="4" height="3" rx="1.5" fill="white" stroke="white" stroke-width="3"/>
<rect x="18.5" y="48.5" width="4" height="3" rx="1.5" fill="white" stroke="white" stroke-width="3"/>
<rect x="33.5" y="48.5" width="4" height="3" rx="1.5" fill="white" stroke="white" stroke-width="3"/>
<rect x="48.5" y="48.5" width="4" height="3" rx="1.5" fill="white" stroke="white" stroke-width="3"/>
</svg>
