<svg width="72" height="72" viewBox="0 0 72 72" fill="none" xmlns="http://www.w3.org/2000/svg">
<rect y="-0.000244141" width="71.6221" height="71.6221" rx="25" fill="#FF4A23"/>
<path d="M21.0307 28.099C22.3447 23.4757 24.6807 19.8013 28.0387 17.076C31.4454 14.302 35.8741 12.915 41.3247 12.915C43.2714 12.915 44.9747 13.0853 46.4347 13.426C47.8947 13.7667 49.1601 14.229 50.2307 14.813C51.3501 15.3483 52.3234 15.981 53.1507 16.711C54.0267 17.3923 54.8054 18.1223 55.4867 18.901L48.9897 25.471C47.6271 23.8163 46.3374 22.7213 45.1207 22.186C43.9041 21.6507 42.6631 21.383 41.3977 21.383C39.5484 21.383 37.9911 21.967 36.7257 23.135C35.4604 24.2543 34.4871 25.909 33.8057 28.099H48.8437L47.5297 36.64H32.7107C32.7107 36.7373 32.6864 36.932 32.6377 37.224C32.6377 37.516 32.6377 37.7837 32.6377 38.027C32.6377 38.5137 32.7107 39.049 32.8567 39.633H47.2377L45.9237 48.174H35.4117C36.1417 49.3907 37.0664 50.3397 38.1857 51.021C39.3537 51.6537 40.7407 51.97 42.3467 51.97C43.2227 51.97 43.9771 51.9457 44.6097 51.897C45.2911 51.7997 45.9237 51.678 46.5077 51.532C47.0917 51.386 47.6757 51.24 48.2597 51.094C48.8437 50.8993 49.4764 50.7047 50.1577 50.51L52.7857 58.686C51.2771 59.0753 49.6711 59.4647 47.9677 59.854C46.2644 60.2433 44.0014 60.438 41.1787 60.438C35.8741 60.438 31.6157 59.3917 28.4037 57.299C25.1917 55.2063 22.8801 52.1647 21.4687 48.174H16.2127V39.633H19.8627C19.8627 39.487 19.8384 39.268 19.7897 38.976C19.7897 38.684 19.7897 38.392 19.7897 38.1C19.7897 37.8567 19.7897 37.589 19.7897 37.297C19.8384 37.005 19.8627 36.786 19.8627 36.64H16.2127V28.099H21.0307Z" fill="white"/>
</svg>
